<svg width="42" height="31" viewBox="0 0 42 31" fill="none" xmlns="http://www.w3.org/2000/svg">
<path d="M38.0625 0H3.93753C1.76624 0 0 1.7382 0 3.87502V27.125C0 29.2618 1.76624 31 3.93753 31H38.0625C40.2338 31 42 29.2618 42 27.125V3.87502C42 1.7382 40.2338 0 38.0625 0ZM38.0625 2.58332C38.2408 2.58332 38.4104 2.61973 38.5655 2.68332L21 17.6658L3.43438 2.68332C3.58947 2.61982 3.75911 2.58332 3.93744 2.58332H38.0625ZM38.0625 28.4166H3.93753C3.21336 28.4166 2.62499 27.8377 2.62499 27.1249V5.41262L20.1399 20.3513C20.3873 20.5619 20.6937 20.6666 21 20.6666C21.3063 20.6666 21.6127 20.562 21.8601 20.3513L39.375 5.41262V27.125C39.3749 27.8377 38.7866 28.4166 38.0625 28.4166Z" fill="black"/>
</svg>
